<?xml version="1.0" encoding="utf-8"?>
<!-- Generator: Adobe Illustrator 22.0.1, SVG Export Plug-In . SVG Version: 6.00 Build 0)  -->
<svg version="1.1" id="Layer_1" xmlns="http://www.w3.org/2000/svg" xmlns:xlink="http://www.w3.org/1999/xlink" x="0px" y="0px"
	 viewBox="0 0 1366 768" style="enable-background:new 0 0 1366 768;" xml:space="preserve">
<style type="text/css">
	.st0{fill:#0079C2;}
	.st1{fill:none;stroke:#0079C2;stroke-miterlimit:10;}
</style>
<path class="st0" d="M1151.9,579.4c-0.8,1.3-1.6,2.6-2.4,3.9l-112.1,112.1c-1.3,0.8-2.6,1.6-3.9,2.4L1151.9,579.4z"/>
<path class="st1" d="M1205.9,388.9c0,4.6-0.1,9.2-0.3,13.8c0,0.5,0,1-0.1,1.5c-0.2,5.8-0.6,11.5-1.1,17.3c-0.1,0.5-0.1,1.1-0.2,1.6
	c-0.6,6.2-1.3,12.2-2.2,18.3c-0.1,0.6-0.2,1.1-0.2,1.7c-1,6.6-2.2,13.1-3.5,19.6c-0.1,0.6-0.2,1.2-0.4,1.8
	c-1.5,7.2-3.3,14.3-5.2,21.3c-0.2,0.7-0.4,1.3-0.6,2c-2.3,8-4.8,16-7.6,23.7c-0.3,0.7-0.5,1.5-0.8,2.2c-3.4,9.4-7.3,18.6-11.4,27.6
	c-0.4,0.9-0.8,1.8-1.3,2.7c-5.8,12.2-12.2,24-19.2,35.4c-0.8,1.3-1.6,2.6-2.4,3.9c-28.6,45.1-67,83.4-112.1,112.1
	c-1.3,0.8-2.6,1.6-3.9,2.4c-11.4,7-23.2,13.5-35.4,19.2c-0.9,0.4-1.8,0.9-2.7,1.3c-9,4.2-18.2,8-27.6,11.4c-0.7,0.3-1.5,0.5-2.2,0.8
	c-7.8,2.8-15.7,5.3-23.7,7.6c-0.7,0.2-1.3,0.4-2,0.6c-7,2-14.1,3.7-21.3,5.2c-0.6,0.1-1.2,0.3-1.8,0.4c-6.5,1.3-13,2.5-19.6,3.5
	c-0.6,0.1-1.1,0.2-1.7,0.2c-6,0.9-12.1,1.6-18.3,2.2c-0.5,0.1-1.1,0.1-1.6,0.2c-5.7,0.5-11.5,0.9-17.3,1.1c-0.5,0-1,0-1.5,0.1
	c-4.6,0.2-9.2,0.3-13.8,0.3c-0.9,0-1.7,0-2.6,0c-0.5,0-0.9,0-1.4,0c-5.2,0-10.5-0.2-15.6-0.5c-0.5,0-0.9-0.1-1.4-0.1
	c-5-0.3-10-0.7-15-1.2c-0.4,0-0.9-0.1-1.3-0.1c-4.8-0.5-9.6-1.1-14.4-1.8c-0.4-0.1-0.8-0.1-1.3-0.2c-4.6-0.7-9.2-1.4-13.8-2.3
	c-0.4-0.1-0.8-0.1-1.2-0.2c-4.5-0.8-8.9-1.8-13.3-2.8c-0.4-0.1-0.8-0.2-1.2-0.3c-4.3-1-8.6-2.1-12.9-3.2c-0.4-0.1-0.8-0.2-1.1-0.3
	c-4.2-1.2-8.3-2.4-12.4-3.7c-0.4-0.1-0.7-0.2-1.1-0.3c-4.1-1.3-8.1-2.6-12.1-4.1c-0.4-0.1-0.7-0.2-1.1-0.4
	c-3.9-1.4-7.8-2.9-11.7-4.5c-0.4-0.1-0.7-0.3-1-0.4c-3.8-1.5-7.6-3.1-11.3-4.8c-0.3-0.2-0.7-0.3-1-0.5c-3.7-1.6-7.4-3.4-11-5.1
	c-0.3-0.1-0.7-0.3-1-0.5c-3.6-1.8-7.2-3.6-10.7-5.5c-0.3-0.2-0.6-0.3-0.9-0.5c-3.5-1.9-6.9-3.8-10.4-5.8c-0.3-0.2-0.6-0.4-0.9-0.5
	c-3.4-2-6.7-4-10-6.1c-0.3-0.2-0.6-0.4-0.9-0.6c-3.3-2.1-6.5-4.2-9.8-6.4c-0.3-0.2-0.6-0.4-0.8-0.6c-3.2-2.2-6.3-4.4-9.5-6.7
	c-0.3-0.2-0.5-0.4-0.8-0.6c-3.1-2.3-6.2-4.6-9.2-7c-0.3-0.2-0.5-0.4-0.8-0.6c-3-2.4-6-4.8-8.9-7.2c-0.3-0.2-0.5-0.4-0.8-0.7
	c-2.9-2.5-5.8-5-8.6-7.5c-0.2-0.2-0.5-0.5-0.8-0.7c-2.8-2.6-5.6-5.2-8.3-7.8c-0.2-0.2-0.5-0.5-0.7-0.7c-2.7-2.6-5.4-5.3-8.1-8.1
	c-0.2-0.2-0.5-0.5-0.7-0.7c-2.6-2.7-5.2-5.5-7.8-8.3c-0.2-0.2-0.5-0.5-0.7-0.8c-2.6-2.8-5.1-5.7-7.5-8.6c-0.2-0.3-0.4-0.5-0.7-0.8
	c-2.5-2.9-4.9-5.9-7.2-8.9c-0.2-0.3-0.4-0.5-0.6-0.8c-2.4-3-4.7-6.1-7-9.2c-0.2-0.3-0.4-0.6-0.6-0.8c-2.3-3.1-4.5-6.3-6.7-9.5
	c-0.2-0.3-0.4-0.6-0.6-0.9c-2.2-3.2-4.3-6.5-6.4-9.8c-0.2-0.3-0.4-0.6-0.6-0.9c-2.1-3.3-4.1-6.7-6.1-10.1c-0.2-0.3-0.4-0.6-0.5-0.9
	c-2-3.4-3.9-6.9-5.7-10.4c-0.2-0.3-0.4-0.6-0.5-0.9c-1.9-3.5-3.7-7.1-5.4-10.7c-0.2-0.3-0.3-0.7-0.5-1c-1.8-3.6-3.5-7.3-5.1-11
	c-0.2-0.3-0.3-0.7-0.5-1c-1.7-3.8-3.2-7.5-4.8-11.4c-0.1-0.4-0.3-0.7-0.4-1c-1.6-3.9-3-7.8-4.4-11.7c-0.1-0.4-0.3-0.7-0.4-1.1
	c-1.4-4-2.8-8-4-12.1c-0.1-0.4-0.2-0.7-0.4-1.1c-1.3-4.1-2.5-8.3-3.7-12.5c-0.1-0.4-0.2-0.8-0.3-1.1c-1.1-4.3-2.2-8.6-3.2-12.9
	c-0.1-0.4-0.2-0.8-0.3-1.2c-1-4.4-1.9-8.9-2.7-13.4c-0.1-0.4-0.2-0.8-0.2-1.2c-0.9-4.6-1.6-9.2-2.3-13.9c-0.1-0.4-0.1-0.8-0.2-1.2
	c-0.7-4.8-1.2-9.6-1.7-14.4c-0.1-0.4-0.1-0.9-0.1-1.3c-0.5-5-0.8-10-1.1-15c0-0.5-0.1-0.9-0.1-1.4c-0.3-5.2-0.4-10.4-0.4-15.7
	c0-0.5,0-1,0-1.4c0-0.4,0-0.9,0-1.3c0-5.1,0.1-10.1,0.3-15.1c0-0.5,0-1,0.1-1.5c0.2-5.8,0.7-11.6,1.2-17.3c0.1-0.5,0.1-1.1,0.2-1.6
	c0.6-6.2,1.4-12.3,2.3-18.4c0.1-0.6,0.2-1.1,0.3-1.7c1-6.6,2.2-13.2,3.6-19.7c0.1-0.6,0.2-1.2,0.4-1.8c1.6-7.3,3.4-14.4,5.4-21.5
	c0.2-0.7,0.4-1.3,0.6-2c2.3-8.1,5-16.1,7.8-24c0.3-0.8,0.5-1.5,0.8-2.3c3.5-9.5,7.5-18.8,11.8-27.9c0.4-0.9,0.9-1.8,1.3-2.8
	c6-12.5,12.8-24.6,20.2-36.3c0.9-1.4,1.7-2.7,2.6-4c27.6-42.3,63.8-78.5,106.1-106.1c1.3-0.9,2.7-1.7,4-2.6
	c11.7-7.4,23.8-14.2,36.4-20.2c0.9-0.4,1.8-0.9,2.7-1.3c9.1-4.3,18.4-8.3,27.9-11.8c0.8-0.3,1.5-0.6,2.3-0.8
	c7.9-2.9,15.9-5.5,24-7.8c0.7-0.2,1.3-0.4,2-0.6c7.1-2,14.2-3.8,21.5-5.3c0.6-0.1,1.2-0.3,1.8-0.4c6.5-1.4,13.1-2.6,19.7-3.6
	c0.6-0.1,1.1-0.2,1.7-0.2c6.1-0.9,12.2-1.7,18.4-2.3c0.5-0.1,1.1-0.1,1.6-0.2c5.7-0.5,11.5-0.9,17.3-1.2c0.5,0,1,0,1.5-0.1
	c3-0.1,5.9-0.2,8.9-0.2c2.4,0.1,4.8,0.2,7.2,0.3c0.5,0,0.9,0,1.4,0c3.6,0.1,7.3,0,10.9-0.1c1.7,0.1,3.4,0.1,5.1,0.2
	c0.5,0,0.9,0,1.4,0.1c5,0.3,10,0.6,15,1.1c0.4,0,0.9,0.1,1.3,0.1c4.8,0.5,9.6,1.1,14.4,1.7c0.4,0.1,0.8,0.1,1.3,0.2
	c4.7,0.7,9.3,1.4,13.9,2.2c0.4,0.1,0.8,0.1,1.2,0.2c4.5,0.8,8.9,1.8,13.4,2.8c0.4,0.1,0.8,0.2,1.2,0.3c4.3,1,8.6,2.1,12.9,3.2
	c0.4,0.1,0.7,0.2,1.1,0.3c4.2,1.1,8.4,2.3,12.5,3.6c0.4,0.1,0.7,0.2,1.1,0.3c4.1,1.3,8.1,2.6,12.1,4c0.4,0.1,0.7,0.2,1.1,0.4
	c3.9,1.4,7.8,2.9,11.7,4.4c0.4,0.1,0.7,0.3,1,0.4c3.8,1.5,7.6,3.1,11.4,4.8c0.3,0.1,0.7,0.3,1,0.5c3.7,1.6,7.4,3.3,11,5.1
	c0.3,0.1,0.7,0.3,1,0.5c3.6,1.7,7.2,3.6,10.7,5.4c0.3,0.2,0.6,0.3,0.9,0.5c3.5,1.9,6.9,3.8,10.4,5.8c0.3,0.2,0.6,0.4,0.9,0.5
	c3.4,2,6.7,4,10.1,6.1c0.3,0.2,0.6,0.4,0.9,0.6c3.3,2.1,6.5,4.2,9.8,6.4c0.3,0.2,0.6,0.4,0.9,0.6c3.2,2.2,6.4,4.4,9.5,6.7
	c0.3,0.2,0.6,0.4,0.8,0.6c3.1,2.2,6.2,4.6,9.2,6.9c0.3,0.2,0.5,0.4,0.8,0.6c3,2.4,6,4.8,8.9,7.2c0.3,0.2,0.5,0.4,0.8,0.7
	c2.9,2.5,5.8,5,8.6,7.5c0.2,0.2,0.5,0.5,0.8,0.7c2.8,2.5,5.6,5.1,8.3,7.8c0.2,0.2,0.5,0.5,0.7,0.7c2.7,2.7,5.4,5.3,8.1,8.1l0.7,0.7
	c2.6,2.7,5.2,5.5,7.8,8.3c0.2,0.2,0.5,0.5,0.7,0.8c2.5,2.8,5.1,5.7,7.5,8.6c0.2,0.3,0.4,0.5,0.7,0.8c2.5,2.9,4.9,5.9,7.3,8.9
	c0.2,0.3,0.4,0.5,0.6,0.8c2.4,3,4.7,6.1,7,9.2c0.2,0.3,0.4,0.5,0.6,0.8c2.3,3.1,4.5,6.3,6.7,9.5c0.2,0.3,0.4,0.6,0.6,0.9
	c2.2,3.2,4.3,6.4,6.4,9.7c0.2,0.3,0.4,0.6,0.6,0.9c2.1,3.3,4.1,6.7,6.1,10c0.2,0.3,0.4,0.6,0.5,0.9c2,3.4,3.9,6.9,5.8,10.4
	c0.2,0.3,0.4,0.6,0.5,0.9c1.9,3.5,3.7,7.1,5.5,10.7c0.2,0.3,0.3,0.7,0.5,1c1.8,3.6,3.5,7.3,5.2,11c0.1,0.3,0.3,0.7,0.4,1
	c1.7,3.7,3.3,7.5,4.8,11.3c0.1,0.3,0.3,0.7,0.4,1c1.5,3.9,3,7.8,4.4,11.7c0.1,0.4,0.2,0.7,0.4,1.1c1.4,4,2.8,8,4.1,12.1
	c0.1,0.4,0.2,0.7,0.4,1.1c1.3,4.1,2.5,8.3,3.7,12.5c0.1,0.4,0.2,0.8,0.3,1.1c1.2,4.3,2.2,8.6,3.3,12.9c0.1,0.4,0.2,0.8,0.3,1.2
	c1,4.4,2,8.9,2.8,13.3c0.1,0.4,0.2,0.8,0.2,1.2c0.9,4.6,1.6,9.2,2.3,13.8c0.1,0.4,0.1,0.8,0.2,1.2c0.7,4.8,1.3,9.5,1.8,14.4
	c0.1,0.4,0.1,0.9,0.1,1.3c0.5,5,0.9,9.9,1.2,15c0,0.5,0.1,0.9,0.1,1.4c0.3,5.2,0.5,10.4,0.5,15.6c0,0.5,0,0.9,0,1.4
	C1205.9,387.1,1205.9,388,1205.9,388.9z"/>
<path class="st0" d="M1172.4,541.3c-0.4,0.9-0.8,1.8-1.3,2.7l-173,173c-0.9,0.4-1.8,0.9-2.7,1.3L1172.4,541.3z"/>
<path class="st0" d="M1184.6,511.5c-0.3,0.7-0.5,1.5-0.8,2.2l-216,216c-0.7,0.3-1.5,0.5-2.2,0.8L1184.6,511.5z"/>
<path class="st0" d="M1192.8,485.8c-0.2,0.7-0.4,1.3-0.6,2L941.9,738.1c-0.7,0.2-1.3,0.4-2,0.6L1192.8,485.8z"/>
<path class="st0" d="M1198.4,462.6c-0.1,0.6-0.2,1.2-0.4,1.8L918.5,743.9c-0.6,0.1-1.2,0.3-1.8,0.4L1198.4,462.6z"/>
<path class="st0" d="M1202.1,441.3c-0.1,0.6-0.2,1.1-0.2,1.7L897.1,747.8c-0.6,0.1-1.1,0.2-1.7,0.2L1202.1,441.3z"/>
<path class="st0" d="M1204.4,421.4c-0.1,0.5-0.1,1.1-0.2,1.6L877.1,750.2c-0.5,0.1-1.1,0.1-1.6,0.2L1204.4,421.4z"/>
<path class="st0" d="M1205.6,402.7c0,0.5,0,1-0.1,1.5L858.2,751.5c-0.5,0-1,0-1.5,0.1L1205.6,402.7z"/>
<path class="st0" d="M1205.4,369.2L823.3,751.3c-0.5,0-0.9-0.1-1.4-0.1l383.3-383.3C1205.3,368.3,1205.3,368.8,1205.4,369.2z"/>
<path class="st0" d="M1204.1,352.9L807,750c-0.4,0-0.9-0.1-1.3-0.1L1204,351.6C1204,352,1204.1,352.4,1204.1,352.9z"/>
<path class="st0" d="M1202.2,337.2l-411,411c-0.4-0.1-0.8-0.1-1.3-0.2l412-412C1202.1,336.4,1202.2,336.8,1202.2,337.2z"/>
<path class="st0" d="M1199.7,322.1L776.2,745.7c-0.4-0.1-0.8-0.1-1.2-0.2l424.6-424.6C1199.6,321.3,1199.7,321.7,1199.7,322.1z"/>
<path class="st0" d="M1196.7,307.5L761.6,742.6c-0.4-0.1-0.8-0.2-1.2-0.3l436-436C1196.5,306.8,1196.7,307.2,1196.7,307.5z"/>
<path class="st0" d="M1193.2,293.5L747.5,739.1c-0.4-0.1-0.8-0.2-1.1-0.3l446.5-446.5C1193,292.7,1193.1,293.1,1193.2,293.5z"/>
<path class="st0" d="M1189.2,279.9L734,735.1c-0.4-0.1-0.7-0.2-1.1-0.3l456-456C1189,279.2,1189.1,279.5,1189.2,279.9z"/>
<path class="st0" d="M1184.8,266.7l-464,464c-0.4-0.1-0.7-0.2-1.1-0.4l464.7-464.7C1184.6,266,1184.7,266.4,1184.8,266.7z"/>
<path class="st0" d="M1205.9,386.3L840.4,751.8c-0.5,0-0.9,0-1.4,0l366.9-366.9C1205.9,385.3,1205.9,385.8,1205.9,386.3z"/>
<path class="st0" d="M1174.8,241.6L695.7,720.7c-0.3-0.2-0.7-0.3-1-0.5l479.6-479.6C1174.5,241,1174.6,241.3,1174.8,241.6z"/>
<path class="st0" d="M1169.2,229.7L683.7,715.1c-0.3-0.1-0.7-0.3-1-0.5l485.9-485.9C1168.9,229,1169,229.3,1169.2,229.7z"/>
<path class="st0" d="M1163.2,218L672.1,709.1c-0.3-0.2-0.6-0.3-0.9-0.5l491.5-491.5C1162.9,217.4,1163.1,217.7,1163.2,218z"/>
<path class="st0" d="M1156.9,206.7L660.8,702.9c-0.3-0.2-0.6-0.4-0.9-0.5l496.5-496.5C1156.6,206.1,1156.8,206.4,1156.9,206.7z"/>
<path class="st0" d="M1150.3,195.8L649.9,696.2c-0.3-0.2-0.6-0.4-0.9-0.6l500.8-500.8C1149.9,195.2,1150.1,195.5,1150.3,195.8z"/>
<path class="st0" d="M1143.4,185.2L639.2,689.3c-0.3-0.2-0.6-0.4-0.8-0.6l504.4-504.4C1143,184.6,1143.2,184.9,1143.4,185.2z"/>
<path class="st0" d="M1136.1,174.9L628.9,682c-0.3-0.2-0.5-0.4-0.8-0.6L1135.5,174C1135.7,174.3,1135.9,174.6,1136.1,174.9z"/>
<path class="st0" d="M1128.5,164.9L618.9,674.4c-0.3-0.2-0.5-0.4-0.8-0.6l509.8-509.8C1128.1,164.3,1128.3,164.6,1128.5,164.9z"/>
<path class="st0" d="M1180,254L708.1,725.9c-0.4-0.1-0.7-0.3-1-0.4L1179.6,253C1179.7,253.3,1179.9,253.6,1180,254z"/>
<path class="st0" d="M1112.5,145.8L599.9,658.4c-0.2-0.2-0.5-0.5-0.8-0.7L1111.8,145C1112,145.3,1112.2,145.5,1112.5,145.8z"/>
<path class="st0" d="M1104,136.7L590.8,649.9c-0.2-0.2-0.5-0.5-0.7-0.7L1103.2,136L1104,136.7z"/>
<path class="st0" d="M1095.2,127.9L582,641.1c-0.2-0.2-0.5-0.5-0.7-0.7l513.2-513.2C1094.7,127.4,1094.9,127.7,1095.2,127.9z"/>
<path class="st0" d="M1086.1,119.4L573.5,632c-0.2-0.2-0.5-0.5-0.7-0.8l512.5-512.5C1085.6,119,1085.8,119.2,1086.1,119.4z"/>
<path class="st0" d="M1076.7,111.2L565.3,622.6c-0.2-0.3-0.4-0.5-0.7-0.8l511.3-511.3C1076.2,110.8,1076.4,111,1076.7,111.2z"/>
<path class="st0" d="M1067,103.4L557.4,612.9c-0.2-0.3-0.4-0.5-0.6-0.8l509.4-509.4C1066.5,102.9,1066.7,103.1,1067,103.4z"/>
<path class="st0" d="M1057,95.8L549.8,602.9c-0.2-0.3-0.4-0.6-0.6-0.8l506.9-506.9C1056.5,95.4,1056.7,95.6,1057,95.8z"/>
<path class="st0" d="M1046.7,88.5L542.6,592.6c-0.2-0.3-0.4-0.6-0.6-0.9l503.9-503.9C1046.1,88.1,1046.4,88.3,1046.7,88.5z"/>
<path class="st0" d="M1120.6,155.2L609.2,666.6c-0.3-0.2-0.5-0.4-0.8-0.7L1120,154.4C1120.2,154.6,1120.4,154.9,1120.6,155.2z"/>
<path class="st0" d="M1025.1,74.9L529,571.1c-0.2-0.3-0.4-0.6-0.5-0.9l495.8-495.8C1024.5,74.6,1024.8,74.7,1025.1,74.9z"/>
<path class="st0" d="M1013.9,68.6L522.7,559.8c-0.2-0.3-0.4-0.6-0.5-0.9l490.7-490.7C1013.2,68.3,1013.5,68.4,1013.9,68.6z"/>
<path class="st0" d="M1002.2,62.7L516.7,548.2c-0.2-0.3-0.3-0.7-0.5-1l485-485C1001.6,62.4,1001.9,62.5,1002.2,62.7z"/>
<path class="st0" d="M990.2,57.1L511.2,536.2c-0.2-0.3-0.3-0.7-0.5-1L989.3,56.6C989.6,56.8,989.9,56.9,990.2,57.1z"/>
<path class="st0" d="M977.9,51.9l-472,472c-0.1-0.4-0.3-0.7-0.4-1L976.9,51.5C977.2,51.6,977.6,51.7,977.9,51.9z"/>
<path class="st0" d="M965.2,47L501.1,511.1c-0.1-0.4-0.3-0.7-0.4-1.1L964.1,46.7C964.5,46.8,964.8,46.9,965.2,47z"/>
<path class="st0" d="M952,42.6L496.7,497.9c-0.1-0.4-0.2-0.7-0.4-1.1L950.9,42.3C951.3,42.4,951.6,42.5,952,42.6z"/>
<path class="st0" d="M938.4,38.6L492.7,484.4c-0.1-0.4-0.2-0.8-0.3-1.1L937.3,38.3C937.6,38.4,938,38.5,938.4,38.6z"/>
<path class="st0" d="M1036.1,81.5L535.6,582c-0.2-0.3-0.4-0.6-0.6-0.9L1035.2,81C1035.5,81.2,1035.8,81.4,1036.1,81.5z"/>
<path class="st0" d="M909.8,32.1L486.2,455.7c-0.1-0.4-0.2-0.8-0.2-1.2L908.6,31.9C909,31.9,909.4,32,909.8,32.1z"/>
<path class="st0" d="M894.7,29.6l-411,411c-0.1-0.4-0.1-0.8-0.2-1.2l410-410C893.9,29.5,894.3,29.5,894.7,29.6z"/>
<path class="st0" d="M879,27.7L481.8,425c-0.1-0.4-0.1-0.9-0.1-1.3L877.7,27.6C878.2,27.6,878.6,27.7,879,27.7z"/>
<path class="st0" d="M862.7,26.5L480.5,408.6c0-0.5-0.1-0.9-0.1-1.4L861.3,26.4C861.8,26.4,862.2,26.4,862.7,26.5z"/>
<path class="st0" d="M845.3,26.3L480,391.6c0-0.5,0-1,0-1.4L843.9,26.3C844.4,26.3,844.8,26.3,845.3,26.3z"/>
<path class="st0" d="M827.8,26.2L480.3,373.7c0-0.5,0-1,0.1-1.5L826.3,26.3C826.8,26.3,827.3,26.3,827.8,26.2z"/>
<path class="st0" d="M809,27.5L481.6,354.9c0.1-0.5,0.1-1.1,0.2-1.6L807.4,27.7C807.9,27.6,808.4,27.6,809,27.5z"/>
<path class="st0" d="M788.9,29.9L484,334.9c0.1-0.6,0.2-1.1,0.3-1.7l303-303C787.8,30.1,788.4,30,788.9,29.9z"/>
<path class="st0" d="M924.4,35.1L489.2,470.3c-0.1-0.4-0.2-0.8-0.3-1.2L923.2,34.8C923.6,34.9,924,35,924.4,35.1z"/>
<path class="st0" d="M744.2,39.5L493.6,290.1c0.2-0.7,0.4-1.3,0.6-2l248-248C742.9,39.9,743.5,39.7,744.2,39.5z"/>
<path class="st0" d="M718.2,47.9L502,264.2c0.3-0.8,0.5-1.5,0.8-2.3L715.9,48.8C716.7,48.5,717.5,48.2,718.2,47.9z"/>
<path class="st0" d="M688,60.6L514.6,233.9c0.4-0.9,0.9-1.8,1.3-2.8L685.3,61.9C686.2,61.4,687.1,61,688,60.6z"/>
<path class="st0" d="M648.9,82.1L536.1,194.9c0.9-1.4,1.7-2.7,2.6-4L644.9,84.7C646.2,83.8,647.6,82.9,648.9,82.1z"/>
<path class="st0" d="M767.5,33.8L487.9,313.4c0.1-0.6,0.2-1.2,0.4-1.8L765.7,34.2C766.3,34,766.9,33.9,767.5,33.8z"/>
</svg>
